<svg xmlns="http://www.w3.org/2000/svg" viewBox="0 0 64 64" width="64" height="64">
  <circle cx="32" cy="32" r="30" fill="#fff" stroke="#0b0e13" stroke-width="2.5"/>
  <!-- center pentagon -->
  <path fill="#0b0e13" d="M32 20.5l9.7 7-3.7 11.4H26L22.3 27.5z"/>
  <!-- outer black caps -->
  <path fill="#0b0e13" d="M32 4.5l7 5.1-2.2 6.6H27.2L25 9.6z"/>
  <path fill="#0b0e13" d="M58 26.4l-2.7 8.2-6.9-.2-2.6-8 5.6-4z"/>
  <path fill="#0b0e13" d="M48.9 56l-7-5 2.3-6.6 7-.2 2.1 6.6z"/>
  <path fill="#0b0e13" d="M15.1 56l7-5-2.3-6.6-7-.2L10.7 51z"/>
  <path fill="#0b0e13" d="M6 26.4l2.7 8.2 6.9-.2 2.6-8-5.6-4z"/>
  <!-- connecting seams -->
  <g stroke="#0b0e13" stroke-width="2" fill="none" stroke-linecap="round">
    <path d="M32 16.2v4.3"/>
    <path d="M48.4 34.2l-6.7-.7"/>
    <path d="M44.2 44.2l-6.2-5.3"/>
    <path d="M19.8 44.2l6.2-5.3"/>
    <path d="M15.6 34.2l6.7-.7"/>
  </g>
</svg>
